# xmcd CD database file
#
# Track frame offsets:
#	150
#	16870
#	36016
#	52096
#	74253
#	91657
#	106546
#	125822
#	142640
#	160105
#	175574
#	194801
#	228827
#
# Disc length: 3344 seconds
#
# Revision: 0
# Processed by: cddbd v1.5.2PL0 Copyright (c) Steve Scherf et al.
# Submitted via: Feurio! 1.68 - http://www.feurio.com
#
DISCID=9c0d0e0d
DTITLE=Phantom Limb - The Pines
DYEAR=2011
DGENRE=Blues/Soul
TTITLE0=The Pines
TTITLE1=Tumbling Down
TTITLE2=Give Me A Reason
TTITLE3=I´ll Have Mercy
TTITLE4=I´ts The Only Way
TTITLE5=Laugh Like You´re Mad
TTITLE6=Gravy Train
TTITLE7=Badge Of Decension
TTITLE8=Hollow Eyes
TTITLE9=Missy
TTITLE10=Harder Than Stone
TTITLE11=High And Dry
TTITLE12=Angel Of Death
EXTD=
EXTT0=
EXTT1=
EXTT2=
EXTT3=
EXTT4=
EXTT5=
EXTT6=
EXTT7=
EXTT8=
EXTT9=
EXTT10=
EXTT11=
EXTT12=
PLAYORDER=
